# Blender v2.74 (sub 0) OBJ File: ''
# www.blender.org
o Sphere_Sphere.002
v -0.309017 -1.951057 0.000000
v -0.809017 -1.000000 -0.587785
v -0.769421 -1.309017 -0.559017
v -0.654508 -1.587785 -0.475528
v -0.475528 -1.809017 -0.345492
v -0.250000 -1.951057 -0.181636
v -0.309017 -1.000000 -0.951057
v -0.293892 -1.309017 -0.904509
v -0.250000 -1.587785 -0.769421
v -0.181635 -1.809017 -0.559017
v -0.095491 -1.951057 -0.293893
v 0.309017 -1.000000 -0.951057
v 0.293893 -1.309017 -0.904509
v 0.250000 -1.587785 -0.769421
v 0.181636 -1.809017 -0.559017
v 0.095492 -1.951057 -0.293893
v 0.809017 -1.000000 -0.587785
v 0.769421 -1.309017 -0.559017
v 0.654509 -1.587785 -0.475528
v 0.475529 -1.809017 -0.345492
v 0.250000 -1.951057 -0.181636
v 1.000001 -1.000000 -0.000000
v 0.951057 -1.309017 0.000000
v 0.809018 -1.587785 0.000000
v 0.587786 -1.809017 -0.000000
v 0.309017 -1.951057 -0.000000
v 0.809018 -1.000000 0.587785
v 0.769421 -1.309017 0.559017
v 0.654509 -1.587785 0.475529
v 0.475529 -1.809017 0.345492
v 0.250000 -1.951057 0.181636
v 0.309018 -1.000000 0.951057
v 0.293893 -1.309017 0.904509
v 0.250000 -1.587785 0.769421
v 0.181636 -1.809017 0.559017
v 0.095492 -1.951057 0.293893
v -0.309017 -1.000000 0.951057
v -0.293892 -1.309017 0.904509
v -0.250000 -1.587785 0.769421
v -0.181635 -1.809017 0.559017
v -0.095491 -1.951057 0.293893
v -0.809017 -1.000000 0.587786
v -0.769421 -1.309017 0.559017
v -0.654509 -1.587785 0.475529
v -0.475528 -1.809017 0.345492
v -0.250000 -1.951057 0.181636
v 0.000000 -2.000000 0.000000
v -1.000000 -1.000000 0.000000
v -0.951057 -1.309017 -0.000000
v -0.809017 -1.587785 0.000000
v -0.587785 -1.809017 0.000000
v -0.559017 -1.000000 -0.769421
v 0.000000 -1.000000 -0.951057
v 0.559017 -1.000000 -0.769421
v 0.904509 -1.000000 -0.293893
v 0.904509 -1.000000 0.293893
v 0.559018 -1.000000 0.769421
v 0.000000 -1.000000 0.951057
v -0.559017 -1.000000 0.769421
v -0.904508 -1.000000 0.293893
v -0.904508 -1.000000 -0.293893
v -0.250000 2.951056 -0.181636
v -0.475528 2.809017 -0.345492
v -0.654509 2.587786 -0.475528
v -0.769421 2.309017 -0.559017
v -0.809017 2.000000 -0.587785
v -0.309017 2.951056 0.000000
v -0.095491 2.951056 -0.293893
v -0.181636 2.809017 -0.559017
v -0.250000 2.587786 -0.769421
v -0.293893 2.309017 -0.904509
v -0.309017 2.000000 -0.951057
v -0.559017 2.000000 -0.769421
v 0.095492 2.951056 -0.293893
v 0.181636 2.809017 -0.559017
v 0.250000 2.587786 -0.769421
v 0.293893 2.309017 -0.904509
v 0.309017 2.000000 -0.951057
v 0.000000 2.000000 -0.951057
v 0.250000 2.951056 -0.181636
v 0.475529 2.809017 -0.345492
v 0.654509 2.587786 -0.475528
v 0.769421 2.309017 -0.559017
v 0.809017 2.000000 -0.587785
v 0.559017 2.000000 -0.769421
v 0.309018 2.951056 0.000000
v 0.587786 2.809017 0.000000
v 0.809018 2.587786 0.000000
v 0.951057 2.309017 0.000000
v 1.000000 2.000000 -0.000000
v 0.904509 2.000000 -0.293893
v 0.250000 2.951056 0.181636
v 0.475529 2.809017 0.345492
v 0.654509 2.587786 0.475529
v 0.769421 2.309017 0.559017
v 0.809017 2.000000 0.587785
v 0.904509 2.000000 0.293893
v 0.095492 2.951056 0.293893
v 0.181636 2.809017 0.559017
v 0.250000 2.587786 0.769421
v 0.293893 2.309017 0.904509
v 0.309017 2.000000 0.951057
v 0.559017 2.000000 0.769421
v -0.095491 2.951056 0.293893
v -0.181635 2.809017 0.559017
v -0.250000 2.587786 0.769421
v -0.293892 2.309017 0.904509
v -0.309017 2.000000 0.951057
v 0.000000 2.000000 0.951057
v -0.000000 3.000000 0.000000
v -0.250000 2.951056 0.181636
v -0.475528 2.809017 0.345492
v -0.654509 2.587786 0.475529
v -0.769421 2.309017 0.559017
v -0.809017 2.000000 0.587786
v -0.559017 2.000000 0.769421
v -0.587785 2.809017 0.000000
v -0.809017 2.587786 0.000000
v -0.951057 2.309017 0.000000
v -1.000000 2.000000 0.000000
v -0.904508 2.000000 0.293893
v -0.904509 2.000000 -0.293892
vt 0.685642 0.749817
vt 0.702664 0.714426
vt 0.725766 0.737118
vt 0.649482 0.743379
vt 0.677193 0.687963
vt 0.605554 0.734691
vt 0.646762 0.655115
vt 0.572421 0.667076
vt 0.608948 0.616800
vt 0.737236 0.695800
vt 0.732185 0.659419
vt 0.726873 0.614957
vt 0.659700 0.580937
vt 0.776155 0.701052
vt 0.761713 0.730036
vt 0.793452 0.668650
vt 0.815289 0.629558
vt 0.718802 0.561734
vt 0.780941 0.562551
vt 0.804553 0.728176
vt 0.775833 0.743136
vt 0.837592 0.712130
vt 0.878236 0.693339
vt 0.840043 0.581755
vt 0.889834 0.618940
vt 0.811585 0.766813
vt 0.847745 0.773251
vt 0.891673 0.781938
vt 0.944785 0.728565
vt 0.944785 0.790709
vt 0.779557 0.762034
vt 0.794563 0.802203
vt 0.820034 0.828667
vt 0.850465 0.861515
vt 0.924806 0.849554
vt 0.759991 0.820830
vt 0.754638 0.788893
vt 0.765042 0.857210
vt 0.770354 0.901672
vt 0.837527 0.935692
vt 0.778425 0.954896
vt 0.721072 0.815578
vt 0.735514 0.786594
vt 0.703775 0.847979
vt 0.681938 0.887072
vt 0.716287 0.954078
vt 0.274209 0.298304
vt 0.176236 0.099188
vt 0.232536 0.080561
vt 0.262125 0.299772
vt 0.289141 0.080566
vt 0.659635 0.804499
vt 0.692674 0.788453
vt 0.618991 0.823291
vt 0.657184 0.934875
vt 0.607394 0.897689
vt 0.230048 0.286509
vt 0.390875 0.132953
vt 0.424873 0.181613
vt 0.294686 0.252742
vt 0.095815 0.347977
vt 0.078800 0.294200
vt 0.227523 0.245437
vt 0.423835 0.348520
vt 0.389509 0.396842
vt 0.748614 0.758315
vt 0.721394 0.773493
vt 0.717671 0.754595
vt 0.570866 0.847414
vt 0.552442 0.788064
vt 0.246082 0.231231
vt 0.344031 0.430334
vt 0.287795 0.448992
vt 0.224409 0.255481
vt 0.441165 0.294808
vt 0.239880 0.293777
vt 0.345357 0.099349
vt 0.290410 0.243069
vt 0.129639 0.396568
vt 0.236732 0.237579
vt 0.292706 0.284208
vt 0.096085 0.181051
vt 0.130644 0.132658
vt 0.742589 0.727737
vt 0.295860 0.273853
vt 0.078770 0.234826
vt 0.250153 0.299279
vt 0.225703 0.276564
vt 0.441852 0.235433
vt 0.258217 0.229752
vt 0.231232 0.448992
vt 0.771461 0.779512
vt 0.221685 0.265642
vt 0.283526 0.292007
vt 0.270239 0.230243
vt 0.175070 0.430188
vt 0.298591 0.262590
vt 0.280544 0.235769
vt 0.580378 0.341824
vt 0.614398 0.274650
vt 0.654555 0.354761
vt 0.658860 0.269338
vt 0.687403 0.324330
vt 0.695240 0.264287
vt 0.713867 0.298859
vt 0.727177 0.258934
vt 0.736558 0.275757
vt 0.666516 0.429102
vt 0.734132 0.395969
vt 0.742819 0.352041
vt 0.749257 0.315881
vt 0.754035 0.283853
vt 0.787505 0.449081
vt 0.822731 0.382532
vt 0.803940 0.341888
vt 0.787894 0.308849
vt 0.772934 0.280129
vt 0.897130 0.394129
vt 0.886512 0.319584
vt 0.847420 0.297748
vt 0.815018 0.280451
vt 0.786034 0.266009
vt 0.953519 0.285236
vt 0.901112 0.231169
vt 0.856650 0.236481
vt 0.820270 0.241532
vt 0.788333 0.246885
vt 0.860955 0.151058
vt 0.935132 0.163995
vt 0.828107 0.181489
vt 0.801643 0.206960
vt 0.778952 0.230062
vt 0.848994 0.076717
vt 0.781379 0.109850
vt 0.772691 0.153778
vt 0.766253 0.189938
vt 0.761475 0.221966
vt 0.692779 0.123287
vt 0.728005 0.056738
vt 0.711570 0.163931
vt 0.727616 0.196970
vt 0.742576 0.225690
vt 0.628998 0.186234
vt 0.618380 0.111690
vt 0.668091 0.208071
vt 0.700492 0.225368
vt 0.561991 0.220583
vt 0.729476 0.239810
vt 0.757755 0.252909
vt 0.552442 0.725920
vt 0.926361 0.669216
vt 0.888279 0.899829
vt 0.561174 0.282721
vt 0.616241 0.392575
vt 0.725361 0.449081
vt 0.846855 0.430657
vt 0.934315 0.344339
vt 0.954336 0.223098
vt 0.899269 0.113244
vt 0.790149 0.056738
vt 0.668656 0.075162
vt 0.581195 0.161480
vn -0.277600 -0.881500 -0.382100
vn -0.425900 -0.689200 -0.586200
vn -0.529000 -0.436100 -0.728000
vn -0.581200 -0.149000 -0.800000
vn 0.000000 -0.881500 -0.472200
vn 0.000000 -0.689200 -0.724600
vn 0.000000 -0.436100 -0.899900
vn 0.000000 -0.149000 -0.988800
vn 0.277600 -0.881500 -0.382100
vn 0.425900 -0.689200 -0.586200
vn 0.529000 -0.436100 -0.728000
vn 0.581200 -0.149000 -0.800000
vn 0.449100 -0.881500 -0.145900
vn 0.689200 -0.689200 -0.223900
vn 0.855900 -0.436100 -0.278100
vn 0.940400 -0.149000 -0.305600
vn 0.449100 -0.881500 0.145900
vn 0.689200 -0.689200 0.223900
vn 0.855900 -0.436100 0.278100
vn 0.940400 -0.149000 0.305600
vn 0.277600 -0.881500 0.382100
vn 0.425900 -0.689200 0.586200
vn 0.529000 -0.436100 0.728000
vn 0.581200 -0.149000 0.800000
vn 0.000000 -0.881500 0.472200
vn 0.000000 -0.689200 0.724600
vn 0.000000 -0.436100 0.899900
vn 0.000000 -0.149000 0.988800
vn -0.277600 -0.881500 0.382100
vn -0.425900 -0.689200 0.586200
vn -0.529000 -0.436100 0.728000
vn -0.581200 -0.149000 0.800000
vn 0.587800 0.000000 0.809000
vn -0.689200 -0.689200 0.223900
vn -0.855900 -0.436100 0.278100
vn -0.940400 -0.149000 0.305600
vn -0.587800 -0.000000 0.809000
vn 0.587800 0.000000 -0.809000
vn -0.951100 0.000000 -0.309000
vn -0.156200 -0.986400 -0.050800
vn -0.449100 -0.881500 -0.145900
vn -0.689200 -0.689200 -0.223900
vn -0.855900 -0.436100 -0.278100
vn -0.940400 -0.149000 -0.305600
vn -0.587800 -0.000000 -0.809000
vn -0.951100 0.000000 0.309000
vn 0.000000 -0.000000 1.000000
vn -0.096600 -0.986400 -0.132900
vn 0.951100 0.000000 0.309000
vn 0.000000 -0.986400 -0.164300
vn 0.951100 0.000000 -0.309000
vn 0.096600 -0.986400 -0.132900
vn 0.156200 -0.986400 -0.050800
vn 0.156200 -0.986400 0.050800
vn 0.096600 -0.986400 0.132900
vn 0.000000 -0.986400 0.164300
vn -0.096600 -0.986400 0.132900
vn 0.000000 0.000000 -1.000000
vn -0.156200 -0.986400 0.050800
vn -0.449100 -0.881500 0.145900
vn -0.581200 0.149000 -0.800000
vn -0.529000 0.436100 -0.728000
vn -0.425900 0.689200 -0.586200
vn -0.277600 0.881500 -0.382100
vn 0.000000 0.149000 -0.988800
vn 0.000000 0.436100 -0.899900
vn 0.000000 0.689200 -0.724600
vn 0.000000 0.881500 -0.472200
vn 0.581200 0.149000 -0.800000
vn 0.529000 0.436100 -0.728000
vn 0.425900 0.689200 -0.586200
vn 0.277600 0.881500 -0.382100
vn 0.940400 0.149000 -0.305600
vn 0.855900 0.436100 -0.278100
vn 0.689200 0.689200 -0.223900
vn 0.449100 0.881500 -0.145900
vn 0.940400 0.149000 0.305600
vn 0.855900 0.436100 0.278100
vn 0.689200 0.689200 0.223900
vn 0.449100 0.881500 0.145900
vn 0.581200 0.149000 0.800000
vn 0.529000 0.436100 0.728000
vn 0.425900 0.689200 0.586200
vn 0.277600 0.881500 0.382100
vn 0.000000 0.149000 0.988800
vn 0.000000 0.436100 0.899900
vn 0.000000 0.689200 0.724600
vn 0.000000 0.881500 0.472200
vn -0.581200 0.149000 0.800000
vn -0.529000 0.436100 0.728000
vn -0.425900 0.689200 0.586200
vn -0.277600 0.881500 0.382100
vn -0.940400 0.149000 0.305600
vn -0.855900 0.436100 0.278100
vn -0.689200 0.689200 0.223900
vn -0.940400 0.149000 -0.305600
vn -0.855900 0.436100 -0.278100
vn -0.689200 0.689200 -0.223900
vn -0.449100 0.881500 -0.145900
vn -0.156200 0.986400 -0.050800
vn -0.096600 0.986400 -0.132900
vn 0.000000 0.986400 -0.164300
vn 0.096600 0.986400 -0.132900
vn 0.156200 0.986400 -0.050800
vn 0.156200 0.986400 0.050800
vn 0.096600 0.986400 0.132900
vn 0.000000 0.986400 0.164300
vn -0.096600 0.986400 0.132900
vn -0.449100 0.881500 0.145900
vn -0.156200 0.986400 0.050800
s off
f 5/1/1 10/2/1 11/3/1
f 4/4/2 9/5/2 10/2/2
f 4/4/3 3/6/3 8/7/3
f 8/7/4 52/8/4 7/9/4
f 11/3/5 10/2/5 15/10/5
f 9/5/6 14/11/6 15/10/6
f 8/7/7 13/12/7 14/11/7
f 8/7/8 7/9/8 53/13/8
f 15/10/9 20/14/9 21/15/9
f 14/11/10 19/16/10 20/14/10
f 14/11/11 13/12/11 18/17/11
f 13/12/12 12/18/12 54/19/12
f 20/14/13 25/20/13 26/21/13
f 19/16/14 24/22/14 25/20/14
f 18/17/15 23/23/15 24/22/15
f 18/17/16 17/24/16 55/25/16
f 26/21/17 25/20/17 30/26/17
f 24/22/18 29/27/18 30/26/18
f 23/23/19 28/28/19 29/27/19
f 28/28/20 56/29/20 27/30/20
f 31/31/21 30/26/21 35/32/21
f 29/27/22 34/33/22 35/32/22
f 28/28/23 33/34/23 34/33/23
f 28/28/24 27/30/24 57/35/24
f 35/32/25 40/36/25 41/37/25
f 34/33/26 39/38/26 40/36/26
f 33/34/27 38/39/27 39/38/27
f 38/39/28 58/40/28 37/41/28
f 40/36/29 45/42/29 46/43/29
f 39/38/30 44/44/30 45/42/30
f 38/39/31 43/45/31 44/44/31
f 38/39/32 37/41/32 59/46/32
f 27/47/33 96/48/33 103/49/33
f 57/50/33 103/49/33 102/51/33
f 44/44/34 50/52/34 51/53/34
f 44/44/35 43/45/35 49/54/35
f 43/45/36 42/55/36 60/56/36
f 37/57/37 108/58/37 116/59/37
f 54/60/38 85/61/38 84/62/38
f 48/63/39 120/64/39 122/65/39
f 47/66/40 1/67/40 6/68/40
f 1/67/41 51/53/41 5/1/41
f 50/52/42 4/4/42 5/1/42
f 50/52/43 49/54/43 3/6/43
f 49/54/44 48/69/44 61/70/44
f 2/71/45 66/72/45 73/73/45
f 60/74/46 121/75/46 120/64/46
f 58/76/47 109/77/47 108/58/47
f 12/78/38 78/79/38 85/61/38
f 61/80/39 122/65/39 66/72/39
f 47/66/48 6/68/48 11/3/48
f 22/81/49 90/82/49 97/83/49
f 47/66/50 11/3/50 16/84/50
f 55/85/51 91/86/51 90/82/51
f 47/66/52 16/84/52 21/15/52
f 32/87/47 102/51/47 109/77/47
f 47/66/53 21/15/53 26/21/53
f 59/88/37 116/59/37 115/89/37
f 47/66/54 26/21/54 31/31/54
f 52/90/45 73/73/45 72/91/45
f 47/66/55 31/31/55 36/92/55
f 42/93/46 115/89/46 121/75/46
f 47/66/56 36/92/56 41/37/56
f 56/94/49 97/83/49 96/48/49
f 47/66/57 41/37/57 46/43/57
f 7/95/58 72/91/58 79/96/58
f 47/66/59 46/43/59 1/67/59
f 46/43/60 45/42/60 51/53/60
f 17/97/51 84/62/51 91/86/51
f 53/98/58 79/96/58 78/79/58
f 73/99/61 65/100/61 71/101/61
f 64/102/62 70/103/62 71/101/62
f 63/104/63 69/105/63 70/103/63
f 62/106/64 68/107/64 69/105/64
f 79/108/65 71/101/65 77/109/65
f 70/103/66 76/110/66 77/109/66
f 69/105/67 75/111/67 76/110/67
f 68/107/68 74/112/68 75/111/68
f 85/113/69 77/109/69 83/114/69
f 76/110/70 82/115/70 83/114/70
f 76/110/71 75/111/71 81/116/71
f 74/112/72 80/117/72 81/116/72
f 91/118/73 83/114/73 89/119/73
f 82/115/74 88/120/74 89/119/74
f 82/115/75 81/116/75 87/121/75
f 80/117/76 86/122/76 87/121/76
f 97/123/77 89/119/77 95/124/77
f 88/120/78 94/125/78 95/124/78
f 88/120/79 87/121/79 93/126/79
f 86/122/80 92/127/80 93/126/80
f 95/124/81 101/128/81 103/129/81
f 94/125/82 100/130/82 101/128/82
f 94/125/83 93/126/83 99/131/83
f 92/127/84 98/132/84 99/131/84
f 109/133/85 101/128/85 107/134/85
f 100/130/86 106/135/86 107/134/86
f 100/130/87 99/131/87 105/136/87
f 98/132/88 104/137/88 105/136/88
f 107/134/89 114/138/89 116/139/89
f 106/135/90 113/140/90 114/138/90
f 106/135/91 105/136/91 112/141/91
f 104/137/92 111/142/92 112/141/92
f 114/138/93 119/143/93 121/144/93
f 113/140/94 118/145/94 119/143/94
f 113/140/95 112/141/95 117/146/95
f 122/147/96 119/143/96 65/100/96
f 118/145/97 64/102/97 65/100/97
f 118/145/98 117/146/98 63/104/98
f 67/148/99 62/106/99 63/104/99
f 67/148/100 110/149/100 62/106/100
f 62/106/101 110/149/101 68/107/101
f 68/107/102 110/149/102 74/112/102
f 74/112/103 110/149/103 80/117/103
f 80/117/104 110/149/104 86/122/104
f 86/122/105 110/149/105 92/127/105
f 92/127/106 110/149/106 98/132/106
f 98/132/107 110/149/107 104/137/107
f 104/137/108 110/149/108 111/142/108
f 111/142/109 67/148/109 117/146/109
f 111/142/110 110/149/110 67/148/110
f 6/68/1 5/1/1 11/3/1
f 5/1/2 4/4/2 10/2/2
f 9/5/3 4/4/3 8/7/3
f 52/8/4 8/7/4 3/6/4
f 3/6/4 2/150/4 52/8/4
f 16/84/5 11/3/5 15/10/5
f 10/2/6 9/5/6 15/10/6
f 9/5/7 8/7/7 14/11/7
f 53/13/8 13/12/8 8/7/8
f 13/12/8 53/13/8 12/18/8
f 16/84/9 15/10/9 21/15/9
f 15/10/10 14/11/10 20/14/10
f 19/16/11 14/11/11 18/17/11
f 54/19/12 18/17/12 13/12/12
f 18/17/12 54/19/12 17/24/12
f 21/15/13 20/14/13 26/21/13
f 20/14/14 19/16/14 25/20/14
f 19/16/15 18/17/15 24/22/15
f 55/25/16 23/23/16 18/17/16
f 23/23/16 55/25/16 22/151/16
f 31/31/17 26/21/17 30/26/17
f 25/20/18 24/22/18 30/26/18
f 24/22/19 23/23/19 29/27/19
f 56/29/20 28/28/20 23/23/20
f 23/23/20 22/151/20 56/29/20
f 36/92/21 31/31/21 35/32/21
f 30/26/22 29/27/22 35/32/22
f 29/27/23 28/28/23 34/33/23
f 57/35/24 33/34/24 28/28/24
f 33/34/24 57/35/24 32/152/24
f 36/92/25 35/32/25 41/37/25
f 35/32/26 34/33/26 40/36/26
f 34/33/27 33/34/27 39/38/27
f 58/40/28 38/39/28 33/34/28
f 33/34/28 32/152/28 58/40/28
f 41/37/29 40/36/29 46/43/29
f 40/36/30 39/38/30 45/42/30
f 39/38/31 38/39/31 44/44/31
f 59/46/32 43/45/32 38/39/32
f 43/45/32 59/46/32 42/55/32
f 57/50/33 27/47/33 103/49/33
f 32/87/33 57/50/33 102/51/33
f 45/42/34 44/44/34 51/53/34
f 50/52/35 44/44/35 49/54/35
f 60/56/36 49/54/36 43/45/36
f 49/54/36 60/56/36 48/69/36
f 59/88/37 37/57/37 116/59/37
f 17/97/38 54/60/38 84/62/38
f 61/80/39 48/63/39 122/65/39
f 6/68/41 1/67/41 5/1/41
f 51/53/42 50/52/42 5/1/42
f 4/4/43 50/52/43 3/6/43
f 61/70/44 3/6/44 49/54/44
f 3/6/44 61/70/44 2/150/44
f 52/90/45 2/71/45 73/73/45
f 48/63/46 60/74/46 120/64/46
f 37/57/47 58/76/47 108/58/47
f 54/60/38 12/78/38 85/61/38
f 2/71/39 61/80/39 66/72/39
f 56/94/49 22/81/49 97/83/49
f 22/81/51 55/85/51 90/82/51
f 58/76/47 32/87/47 109/77/47
f 42/93/37 59/88/37 115/89/37
f 7/95/45 52/90/45 72/91/45
f 60/74/46 42/93/46 121/75/46
f 27/47/49 56/94/49 96/48/49
f 53/98/58 7/95/58 79/96/58
f 1/67/60 46/43/60 51/53/60
f 55/85/51 17/97/51 91/86/51
f 12/78/58 53/98/58 78/79/58
f 65/100/61 73/99/61 66/153/61
f 73/99/61 71/101/61 72/154/61
f 65/100/62 64/102/62 71/101/62
f 64/102/63 63/104/63 70/103/63
f 63/104/64 62/106/64 69/105/64
f 71/101/65 79/108/65 72/154/65
f 79/108/65 77/109/65 78/155/65
f 71/101/66 70/103/66 77/109/66
f 70/103/67 69/105/67 76/110/67
f 69/105/68 68/107/68 75/111/68
f 77/109/69 85/113/69 78/155/69
f 85/113/69 83/114/69 84/156/69
f 77/109/70 76/110/70 83/114/70
f 82/115/71 76/110/71 81/116/71
f 75/111/72 74/112/72 81/116/72
f 83/114/73 91/118/73 84/156/73
f 91/118/73 89/119/73 90/157/73
f 83/114/74 82/115/74 89/119/74
f 88/120/75 82/115/75 87/121/75
f 81/116/76 80/117/76 87/121/76
f 89/119/77 97/123/77 90/157/77
f 97/123/77 95/124/77 96/158/77
f 89/119/78 88/120/78 95/124/78
f 94/125/79 88/120/79 93/126/79
f 87/121/80 86/122/80 93/126/80
f 101/128/81 102/159/81 103/129/81
f 103/129/81 96/158/81 95/124/81
f 95/124/82 94/125/82 101/128/82
f 100/130/83 94/125/83 99/131/83
f 93/126/84 92/127/84 99/131/84
f 101/128/85 109/133/85 102/159/85
f 109/133/85 107/134/85 108/160/85
f 101/128/86 100/130/86 107/134/86
f 106/135/87 100/130/87 105/136/87
f 99/131/88 98/132/88 105/136/88
f 114/138/89 115/161/89 116/139/89
f 116/139/89 108/160/89 107/134/89
f 107/134/90 106/135/90 114/138/90
f 113/140/91 106/135/91 112/141/91
f 105/136/92 104/137/92 112/141/92
f 119/143/93 120/162/93 121/144/93
f 121/144/93 115/161/93 114/138/93
f 114/138/94 113/140/94 119/143/94
f 118/145/95 113/140/95 117/146/95
f 119/143/96 122/147/96 120/162/96
f 122/147/96 65/100/96 66/153/96
f 119/143/97 118/145/97 65/100/97
f 64/102/98 118/145/98 63/104/98
f 117/146/99 67/148/99 63/104/99
f 112/141/109 111/142/109 117/146/109
